HIERARCHY
ROOT Torso
{
	OFFSET 0.000000 0.000000 0.000000
	CHANNELS 6 Xposition Yposition Zposition Zrotation Yrotation Xrotation
	JOINT LeftThigh
	{
		OFFSET 0.055000 0.115000 0.010000
		CHANNELS 6 Xposition Yposition Zposition Zrotation Yrotation Xrotation
		JOINT LeftLeg
		{
			OFFSET 0.000000 0.120000 -0.015000
			CHANNELS 6 Xposition Yposition Zposition Zrotation Yrotation Xrotation
			JOINT LeftFoot
			{
				OFFSET 0.000000 0.100000 0.010000
				CHANNELS 6 Xposition Yposition Zposition Zrotation Yrotation Xrotation
				End Site
				{
					OFFSET 0.000000 0.035000 -0.090000
				}
			}
		}
	}
	JOINT RightThigh
	{
		OFFSET -0.055000 0.115000 0.010000
		CHANNELS 6 Xposition Yposition Zposition Zrotation Yrotation Xrotation
		JOINT RightLeg
		{
			OFFSET 0.000000 0.120000 -0.015000
			CHANNELS 6 Xposition Yposition Zposition Zrotation Yrotation Xrotation
			JOINT RightFoot
			{
				OFFSET 0.000000 0.100000 0.010000
				CHANNELS 6 Xposition Yposition Zposition Zrotation Yrotation Xrotation
				End Site
				{
					OFFSET 0.000000 0.035000 -0.090000
				}
			}
		}
	}
	JOINT Neck
	{
		OFFSET 0.000000 -0.040000 -0.000000
		CHANNELS 6 Xposition Yposition Zposition Zrotation Yrotation Xrotation
		JOINT Head
		{
			OFFSET 0.000000 -0.100000 -0.000000
			CHANNELS 6 Xposition Yposition Zposition Zrotation Yrotation Xrotation
			End Site
			{
				OFFSET 0.000000 -0.070000 -0.000000
			}
		}
	}
	JOINT LeftUpperarm
	{
		OFFSET 0.098000 -0.075000 -0.000000
		CHANNELS 6 Xposition Yposition Zposition Zrotation Yrotation Xrotation
		JOINT LeftLowerarm
		{
			OFFSET 0.000000 -0.009000 -0.090000
			CHANNELS 6 Xposition Yposition Zposition Zrotation Yrotation Xrotation
			End Site
			{
				OFFSET 0.000000 0.000000 -0.105000
			}
		}
	}
	JOINT RightUpperarm
	{
		OFFSET -0.098000 -0.075000 -0.000000
		CHANNELS 6 Xposition Yposition Zposition Zrotation Yrotation Xrotation
		JOINT RightLowerarm
		{
			OFFSET 0.000000 -0.009000 -0.090000
			CHANNELS 6 Xposition Yposition Zposition Zrotation Yrotation Xrotation
			End Site
			{
				OFFSET 0.000000 0.000000 -0.105000
			}
		}
	}
}
MOTION
Frames: 14
Frame Time: 0.041667
0.000000 0.000000 0.000000 0.000000 -0.000000 0.000000 0.055000 0.115001 0.009998 1.000058 -179.999991 7.125009 -0.000001 0.119999 -0.015002 -0.000000 -0.000002 -12.835607 -0.000000 0.100000 0.010000 -25.253904 176.385892 -13.638813 -0.055000 0.115000 0.009998 -1.000017 179.999991 7.125011 -0.000000 0.120001 -0.015000 -0.000029 0.000008 -12.835609 -0.000000 0.100000 0.010002 26.762447 -174.377393 -10.256140 -0.000000 -0.040000 0.000002 -0.662769 -0.163290 -11.680951 -0.000000 -0.099998 0.000002 -0.513015 0.108573 -24.530853 0.098002 -0.075000 -0.000000 97.999998 0.000014 -84.289404 -0.000002 -0.009002 -0.090000 0.000005 0.000001 -5.710585 -0.098002 -0.075000 -0.000000 -97.999985 -0.000013 -84.289404 -0.000002 -0.009000 -0.090000 0.000004 -0.000000 -5.710589 
0.000000 0.000000 0.000000 0.000000 -0.000000 0.000000 0.055000 0.114999 0.010000 6.705363 -174.929109 10.774967 -0.000000 0.119999 -0.015002 -0.000020 -0.000070 -36.083531 0.000000 0.100001 0.010000 -25.645508 179.823527 -28.871746 -0.055000 0.115000 0.010000 -2.557574 187.326175 40.558766 0.000000 0.120000 -0.015000 0.000004 0.000048 -63.981312 -0.000000 0.100000 0.010000 28.659771 -169.996005 -22.516222 -0.000000 -0.040000 0.000002 -3.237818 6.106716 -6.536594 -0.000000 -0.100004 -0.000004 -6.232642 -1.896181 -27.220836 0.098002 -0.074998 -0.000000 174.212786 -32.804497 -88.128408 -0.000000 -0.008998 -0.090000 5.978015 21.854681 35.978295 -0.098000 -0.075002 0.000000 -181.075951 13.569568 -89.339551 0.000000 -0.009000 -0.090000 -3.441297 -17.976353 27.217807 
0.000000 0.000000 0.000000 0.000000 -0.000000 0.000000 0.055001 0.115001 0.010002 6.771079 -175.046479 9.968659 0.000000 0.120000 -0.015002 0.000046 -0.000008 -35.371835 0.000001 0.099999 0.010002 -25.646291 179.817215 -28.866087 -0.055000 0.115000 0.010000 -2.663848 187.282066 40.554849 -0.000000 0.120000 -0.015001 -0.000067 -0.000017 -61.712665 -0.000000 0.100001 0.010000 28.687662 -170.008996 -22.923119 -0.000000 -0.040002 -0.000000 -3.201189 5.997449 -6.007011 -0.000000 -0.099998 -0.000000 -5.914105 -2.084619 -26.546741 0.098000 -0.075002 0.000001 173.974945 -32.428372 -87.955221 -0.000002 -0.008996 -0.090002 5.868526 21.713716 35.636649 -0.098000 -0.075000 -0.000000 -181.181696 13.652784 -89.446498 0.000000 -0.009000 -0.090000 -3.474133 -18.036771 27.345774 
0.000000 0.000000 0.000000 0.000000 -0.000000 0.000000 0.055002 0.115001 0.010002 6.874842 -175.206182 9.355258 -0.000000 0.119999 -0.015000 -0.000015 0.000013 -35.056526 0.000001 0.100001 0.010002 -25.630683 179.933698 -29.085408 -0.055000 0.115000 0.010002 -2.693074 187.259690 40.533495 0.000000 0.120000 -0.014998 0.000024 -0.000027 -59.448703 -0.000000 0.100001 0.010002 28.719166 -169.922266 -23.154652 -0.000000 -0.040002 0.000004 -3.122802 5.891337 -5.693537 -0.000000 -0.099998 0.000000 -5.658253 -1.920657 -26.077049 0.098000 -0.075000 -0.000000 173.815624 -32.757177 -87.815715 -0.000000 -0.008998 -0.090001 5.952440 21.821927 35.898781 -0.098002 -0.075000 -0.000000 -181.211599 13.213887 -89.400278 0.000000 -0.009002 -0.090000 -3.517343 -18.116022 27.513826 
0.000000 0.000000 0.000000 0.000000 -0.000000 0.000000 0.055000 0.115000 0.010000 6.847715 -175.283677 8.769354 -0.000000 0.119999 -0.015000 -0.000043 -0.000001 -34.510624 0.000000 0.100000 0.010000 -25.627152 179.962261 -29.110167 -0.055000 0.115000 0.010002 -2.678327 186.670204 40.443845 0.000000 0.120000 -0.014998 0.000005 -0.000017 -57.111549 -0.000000 0.100000 0.010000 28.724395 -170.135054 -23.762173 -0.000000 -0.040000 -0.000002 -3.035491 5.889265 -5.907676 -0.000000 -0.100000 0.000000 -5.574545 -1.655301 -26.329647 0.098000 -0.075002 -0.000000 173.676561 -32.905451 -87.629811 -0.000001 -0.009000 -0.090001 5.971949 21.846918 35.959566 -0.098000 -0.075000 0.000000 -181.220273 12.865604 -89.206949 0.000000 -0.009000 -0.090001 -3.448217 -17.988994 27.244720 
0.000000 0.000000 0.000000 0.000000 -0.000000 0.000000 0.054998 0.115000 0.009998 6.887656 -175.650541 7.966666 -0.000000 0.120000 -0.015000 0.000025 -0.000026 -33.816963 0.000000 0.100000 0.009996 -25.597869 180.230988 -28.953527 -0.054999 0.114998 0.009998 -2.683593 186.689001 40.391051 0.000000 0.120000 -0.014999 0.000030 0.000016 -54.773415 -0.000000 0.100000 0.009998 28.721314 -170.050591 -23.501354 -0.000000 -0.040000 -0.000000 -2.909461 5.982892 -6.031026 -0.000000 -0.100000 -0.000002 -5.428745 -1.627135 -26.529355 0.098000 -0.075000 -0.000000 173.588151 -32.821269 -87.582061 -0.000001 -0.008998 -0.090002 5.891804 21.743878 35.709602 -0.098000 -0.075002 -0.000000 -181.223155 12.752501 -89.182463 0.000000 -0.009002 -0.089999 -3.380548 -17.863345 26.979341 
0.000000 0.000000 0.000000 0.000000 -0.000000 0.000000 0.055000 0.114998 0.010000 6.880956 -175.967857 7.181953 -0.000000 0.120000 -0.014998 0.000072 -0.000059 -33.179696 0.000000 0.099999 0.010000 -25.569993 180.497229 -28.737297 -0.055000 0.115000 0.009998 -2.642248 186.449138 40.236419 0.000000 0.120000 -0.015000 0.000012 0.000034 -52.268716 -0.000000 0.100000 0.010000 28.729709 -169.969763 -23.420789 -0.000000 -0.040000 -0.000000 -3.149648 5.853654 -6.041757 -0.000000 -0.100002 0.000002 -5.442437 -1.990678 -26.287028 0.097998 -0.075002 -0.000000 173.559027 -33.380084 -87.700899 0.000001 -0.009000 -0.089999 5.970470 21.844974 35.954959 -0.098000 -0.075002 -0.000000 -181.309912 12.686893 -89.356114 0.000000 -0.009000 -0.090000 -3.371095 -17.845613 26.942062 
0.000000 0.000000 0.000000 0.000000 -0.000000 0.000000 0.054999 0.114998 0.009998 6.835206 -176.271965 6.201227 -0.000000 0.120001 -0.014998 -0.000016 -0.000082 -32.149786 0.000000 0.100000 0.010000 -25.551043 180.702148 -28.314879 -0.055000 0.114998 0.009998 -2.532597 185.899007 39.999985 0.000000 0.120000 -0.015001 -0.000029 0.000000 -49.737274 -0.000000 0.099999 0.010004 28.770580 -169.842038 -23.692521 -0.000000 -0.040002 0.000002 -3.034833 5.983840 -5.906695 -0.000000 -0.100000 0.000000 -5.549109 -1.381151 -26.228848 0.097998 -0.075002 0.000001 173.524207 -33.682019 -87.715297 -0.000001 -0.009000 -0.090001 6.009910 21.895421 36.077380 -0.097998 -0.075004 0.000000 -181.394593 12.664138 -89.437113 0.000000 -0.009000 -0.090001 -3.359363 -17.823486 26.895451 
0.000000 0.000000 0.000000 0.000000 -0.000000 0.000000 0.055000 0.114999 0.009998 6.764133 -176.809692 5.446610 0.000000 0.119999 -0.015000 -0.000004 -0.000067 -31.217277 0.000000 0.100000 0.010002 -25.550746 180.731737 -27.795228 -0.055000 0.115000 0.010000 -2.391415 185.254114 39.570558 0.000000 0.120000 -0.015000 -0.000039 -0.000030 -47.068087 -0.000000 0.099999 0.010002 28.829204 -169.671489 -24.121209 -0.000000 -0.040000 -0.000000 -2.875820 6.158528 -5.607501 -0.000000 -0.100002 0.000002 -5.102379 -1.647412 -26.028813 0.098000 -0.075002 0.000000 173.567524 -33.404451 -87.868382 -0.000001 -0.009002 -0.090001 5.951573 21.820769 35.896087 -0.098002 -0.075000 -0.000000 -181.487142 12.610406 -89.574188 0.000000 -0.008998 -0.090003 -3.341625 -17.790162 26.825351 
0.000000 0.000000 0.000000 0.000000 -0.000000 0.000000 0.055000 0.115000 0.010000 6.697575 -177.296302 4.492797 0.000000 0.120000 -0.015000 0.000003 0.000031 -30.246817 0.000000 0.100000 0.010002 -25.540587 180.836498 -27.495060 -0.055000 0.115002 0.010004 -2.161040 184.370848 39.173512 0.000000 0.119998 -0.015000 0.000004 0.000044 -44.458258 -0.000000 0.100000 0.009998 28.914113 -169.390809 -24.655941 -0.000000 -0.040000 0.000002 -2.834676 5.953035 -5.338550 -0.000000 -0.100000 -0.000002 -5.008080 -1.415976 -25.843086 0.098000 -0.074998 -0.000000 173.465959 -33.915953 -87.796700 0.000000 -0.008998 -0.090000 5.957365 21.828233 35.914241 -0.098000 -0.075002 -0.000000 -181.587300 12.503879 -89.547673 0.000000 -0.008998 -0.089999 -3.267956 -17.650570 26.532232 
0.000000 0.000000 0.000000 0.000000 -0.000000 0.000000 0.055001 0.115002 0.010002 6.625871 -177.683205 3.540201 0.000000 0.120001 -0.015002 0.000031 -0.000037 -29.313249 0.000001 0.099999 0.010002 -25.540511 180.840774 -27.203537 -0.055000 0.115000 0.010000 -1.884604 183.313794 38.785864 0.000000 0.120000 -0.015000 0.000018 0.000023 -41.938256 -0.000000 0.100000 0.010000 29.036954 -168.849038 -25.012783 -0.000000 -0.040000 -0.000000 -2.916653 5.800215 -5.704185 -0.000000 -0.099998 0.000000 -5.087617 -1.241311 -26.210349 0.098004 -0.075002 0.000001 173.438638 -33.668741 -87.818529 -0.000000 -0.009000 -0.090002 5.797433 21.621240 35.413715 -0.097998 -0.075002 -0.000000 -181.697949 12.470875 -89.668130 -0.000000 -0.008998 -0.089998 -3.220151 -17.558919 26.340532 
0.000000 0.000000 0.000000 0.000000 -0.000000 0.000000 0.055000 0.115000 0.009998 6.597071 -178.016477 2.581457 -0.000000 0.120000 -0.015000 0.000047 -0.000011 -28.363358 0.000000 0.100000 0.009998 -25.525575 180.983265 -26.850020 -0.055000 0.115000 0.010000 -1.562594 182.300741 38.390448 0.000000 0.120000 -0.015000 -0.000057 -0.000001 -39.676934 -0.000000 0.100000 0.010000 29.174484 -168.284291 -25.481867 -0.000000 -0.040000 -0.000000 -2.980106 6.136188 -4.751000 -0.000000 -0.099998 -0.000002 -5.092798 -1.504382 -25.183210 0.097998 -0.075000 0.000000 173.634569 -34.105375 -88.089674 -0.000001 -0.009000 -0.090000 6.018224 21.905947 36.103273 -0.097998 -0.075002 0.000001 -181.764161 12.541050 -89.860858 -0.000000 -0.009004 -0.090001 -3.212543 -17.544188 26.309925 
0.000000 0.000000 0.000000 0.000000 -0.000000 0.000000 0.054999 0.114998 0.010000 6.576840 -178.258812 1.665041 -0.000000 0.119999 -0.015002 -0.000023 0.000033 -27.515907 0.000000 0.099999 0.010000 -25.513705 181.090718 -26.491949 -0.055000 0.115000 0.009998 -1.078043 180.946601 38.023615 0.000000 0.120000 -0.015001 0.000021 -0.000036 -37.570825 -0.000000 0.100001 0.009998 29.314028 -167.836107 -26.325135 -0.000000 -0.040000 -0.000000 -3.091651 5.849416 -5.289102 -0.000000 -0.100000 0.000002 -5.173096 -1.292276 -25.706551 0.098000 -0.074998 -0.000000 173.536816 -34.133372 -87.974933 0.000000 -0.009000 -0.089999 5.969603 21.843903 35.952272 -0.098000 -0.074998 -0.000000 -181.832832 12.541783 -89.901600 0.000000 -0.008998 -0.090001 -3.186247 -17.493496 26.203889 
0.000000 0.000000 0.000000 0.000000 -0.000000 0.000000 0.055000 0.115001 0.010002 6.516132 -178.435782 0.745266 -0.000000 0.120000 -0.015000 0.000049 0.000015 -26.654028 0.000000 0.100000 0.009998 -25.492148 181.290569 -26.105987 -0.055000 0.115000 0.010000 -0.423974 179.143977 37.716673 0.000000 0.120002 -0.015002 -0.000076 0.000008 -35.699760 -0.000000 0.100000 0.010000 29.516048 -167.227497 -27.710412 -0.000000 -0.039998 -0.000000 -3.128242 5.812505 -5.304683 -0.000000 -0.099998 0.000000 -5.095903 -1.403399 -25.611208 0.098000 -0.075002 -0.000000 173.642916 -34.158780 -88.092495 0.000001 -0.009000 -0.090001 5.895781 21.749014 35.722002 -0.098000 -0.075000 -0.000000 -181.820141 12.506659 -89.880071 0.000000 -0.009002 -0.089998 -3.129745 -17.383224 25.974494 
